<svg xmlns="http://www.w3.org/2000/svg" viewBox="-700 -4800 1100 650" width="1100" height="650">
  <rect x="-700" y="-4800" width="1100" height="650" fill="#0b1220" />
  <g opacity="0.18" stroke="#94a3b8" stroke-width="1">
    <line x1="-700" y1="-4750" x2="400" y2="-4750" />
    <line x1="-700" y1="-4650" x2="400" y2="-4650" />
    <line x1="-700" y1="-4550" x2="400" y2="-4550" />
    <line x1="-700" y1="-4450" x2="400" y2="-4450" />
    <line x1="-700" y1="-4350" x2="400" y2="-4350" />
    <line x1="-600" y1="-4800" x2="-600" y2="-4150" />
    <line x1="-400" y1="-4800" x2="-400" y2="-4150" />
    <line x1="-200" y1="-4800" x2="-200" y2="-4150" />
    <line x1="0" y1="-4800" x2="0" y2="-4150" />
    <line x1="200" y1="-4800" x2="200" y2="-4150" />
  </g>
  <polyline
    fill="none"
    stroke="#22d3ee"
    stroke-width="6"
    stroke-linecap="round"
    stroke-linejoin="round"
    points="326.71,-4704.19 322.1666259765625,-4708.33349609375 283.1666259765625,-4738.33349609375 262.1666259765625,-4741.33349609375 194.1666259765625,-4742.33349609375 -31.8333740234375,-4745.33349609375 -38.8333740234375,-4745.33349609375 -139.8333740234375,-4741.33349609375 -268.8333740234375,-4740.33349609375 -275.8333740234375,-4748.33349609375 -277.8333740234375,-4750.33349609375 -398.8333740234375,-4766.33349609375 -400.8333740234375,-4766.33349609375 -564.8333740234375,-4678.33349609375 -567.8333740234375,-4675.33349609375 -597.8333740234375,-4602.33349609375 -603.8333740234375,-4580.33349609375 -629.8333740234375,-4553.33349609375 -641.8333740234375,-4517.33349609375 -644.8333740234375,-4505.33349609375 -646.8333740234375,-4497.33349609375 -646.8333740234375,-4492.33349609375 -631.8333740234375,-4461.33349609375 -628.8333740234375,-4454.33349609375 -627.8333740234375,-4351.33349609375 -619.8333740234375,-4320.33349609375 -618.48,-4251.93"
  />
  <circle cx="326.71" cy="-4704.19" r="8" fill="#22c55e" />
  <circle cx="-618.48" cy="-4251.93" r="8" fill="#ef4444" />
  <text x="338" y="-4712" fill="#22c55e" font-size="20" font-family="Arial, sans-serif">Start</text>
  <text x="-605" y="-4265" fill="#ef4444" font-size="20" font-family="Arial, sans-serif">End</text>
</svg>
